<svg width="836" height="587" viewBox="0 0 836 587" fill="none" xmlns="http://www.w3.org/2000/svg">
<path fill-rule="evenodd" clip-rule="evenodd" d="M414.824 7.11512C391.1 -7.01859 360.047 0.53765 345.757 24.1669L228.704 217.72L92.2105 24.2388C89.5267 20.4346 86.4002 17.119 82.9479 14.311C74.1362 6.87229 62.7425 2.38237 50.3755 2.38237C22.7612 2.38237 0 24.7681 0 52.3824V365.382C0 392.997 22.7612 415.382 50.3755 415.382C77.9897 415.382 100.751 392.997 100.751 365.382V210.69L187.955 334.301C194.194 343.145 202.826 349.348 212.381 352.673C235.31 363.098 263.17 355.035 276.482 333.022L339.531 228.768V365.382C339.531 392.997 362.292 415.382 389.906 415.382C417.52 415.382 440.282 392.997 440.282 365.382V52.3824C440.282 45.069 438.685 38.1223 435.825 31.8611C431.91 21.8611 424.755 13.0318 414.824 7.11512Z" fill="black"/>
<path d="M478.567 2.38251L579.318 2.38251V365.007C579.318 392.829 556.764 415.383 528.942 415.383C501.121 415.383 478.567 392.829 478.567 365.007V2.38251Z" fill="black"/>
<path d="M478.567 2.38251L654.5 2.38251C737.619 2.38251 805 69.7637 805 152.883C805 236.001 737.619 303.383 654.5 303.383H478.567V2.38251Z" fill="black"/>
<path d="M620.523 63.3825C619.044 63.3835 617.593 63.7785 616.325 64.5253C615.057 65.2721 614.02 66.3426 613.325 67.6224L548.04 187.628C547.376 188.847 547.045 190.213 547.08 191.594C547.115 192.976 547.515 194.324 548.239 195.509C548.964 196.694 549.99 197.675 551.216 198.356C552.442 199.037 553.828 199.395 555.237 199.395H594.694L579.817 294.177C579.548 295.908 579.866 297.678 580.721 299.215C581.577 300.752 582.923 301.971 584.553 302.686C586.184 303.4 588.009 303.571 589.747 303.171C591.486 302.772 593.043 301.824 594.18 300.473L708.438 164.46C709.419 163.29 710.041 161.871 710.232 160.367C710.422 158.864 710.174 157.338 709.515 155.968C708.856 154.598 707.813 153.44 706.509 152.627C705.204 151.815 703.691 151.383 702.146 151.381H650.595L692.973 75.2142C693.651 73.9964 693.994 72.6266 693.969 71.2395C693.944 69.8523 693.551 68.4954 692.829 67.3021C692.107 66.1087 691.081 65.1199 689.852 64.4327C688.622 63.7456 687.232 63.3836 685.816 63.3825H620.523Z" fill="#FFE141"/>
<path d="M19.2 544C15.44 544 12.56 543.04 10.56 541.12C8.64 539.12 7.68 536.28 7.68 532.6V470.8C7.68 467.12 8.64 464.32 10.56 462.4C12.56 460.4 15.44 459.4 19.2 459.4H59.88C62.76 459.4 64.92 460.12 66.36 461.56C67.8 463 68.52 465.08 68.52 467.8C68.52 470.6 67.8 472.76 66.36 474.28C64.92 475.72 62.76 476.44 59.88 476.44H28.8V492.52H57.24C60.04 492.52 62.16 493.24 63.6 494.68C65.12 496.12 65.88 498.24 65.88 501.04C65.88 503.84 65.12 505.96 63.6 507.4C62.16 508.84 60.04 509.56 57.24 509.56H28.8V526.96H59.88C62.76 526.96 64.92 527.72 66.36 529.24C67.8 530.68 68.52 532.76 68.52 535.48C68.52 538.28 67.8 540.4 66.36 541.84C64.92 543.28 62.76 544 59.88 544H19.2ZM92.5509 544C89.0309 544 86.2709 543.04 84.2709 541.12C82.3509 539.12 81.3909 536.36 81.3909 532.84V470.44C81.3909 466.84 82.3509 464.08 84.2709 462.16C86.1909 460.24 88.9109 459.28 92.4309 459.28C96.0309 459.28 98.7509 460.24 100.591 462.16C102.511 464.08 103.471 466.84 103.471 470.44V525.64H132.751C135.791 525.64 138.111 526.44 139.711 528.04C141.391 529.56 142.231 531.8 142.231 534.76C142.231 537.72 141.391 540 139.711 541.6C138.111 543.2 135.791 544 132.751 544H92.5509ZM163.106 544C159.346 544 156.466 543.04 154.466 541.12C152.546 539.12 151.586 536.28 151.586 532.6V470.8C151.586 467.12 152.546 464.32 154.466 462.4C156.466 460.4 159.346 459.4 163.106 459.4H203.786C206.666 459.4 208.826 460.12 210.266 461.56C211.706 463 212.426 465.08 212.426 467.8C212.426 470.6 211.706 472.76 210.266 474.28C208.826 475.72 206.666 476.44 203.786 476.44H172.706V492.52H201.146C203.946 492.52 206.066 493.24 207.506 494.68C209.026 496.12 209.786 498.24 209.786 501.04C209.786 503.84 209.026 505.96 207.506 507.4C206.066 508.84 203.946 509.56 201.146 509.56H172.706V526.96H203.786C206.666 526.96 208.826 527.72 210.266 529.24C211.706 530.68 212.426 532.76 212.426 535.48C212.426 538.28 211.706 540.4 210.266 541.84C208.826 543.28 206.666 544 203.786 544H163.106ZM268.252 545.32C258.892 545.32 250.852 543.52 244.132 539.92C237.412 536.32 232.252 531.24 228.652 524.68C225.132 518.12 223.372 510.44 223.372 501.64C223.372 495.08 224.372 489.12 226.372 483.76C228.452 478.4 231.412 473.8 235.252 469.96C239.172 466.12 243.892 463.2 249.412 461.2C255.012 459.12 261.292 458.08 268.252 458.08C271.932 458.08 275.732 458.52 279.652 459.4C283.652 460.2 287.172 461.44 290.212 463.12C292.452 464.32 294.012 465.84 294.892 467.68C295.772 469.52 296.052 471.4 295.732 473.32C295.492 475.24 294.812 476.96 293.692 478.48C292.572 480 291.132 481.04 289.372 481.6C287.612 482.08 285.692 481.8 283.612 480.76C281.212 479.64 278.812 478.8 276.412 478.24C274.092 477.6 271.652 477.28 269.092 477.28C264.132 477.28 259.972 478.24 256.612 480.16C253.332 482 250.852 484.72 249.172 488.32C247.492 491.92 246.652 496.36 246.652 501.64C246.652 506.92 247.492 511.4 249.172 515.08C250.852 518.68 253.332 521.44 256.612 523.36C259.972 525.2 264.132 526.12 269.092 526.12C271.172 526.12 273.412 525.88 275.812 525.4C278.212 524.84 280.572 524 282.892 522.88C285.292 521.84 287.412 521.56 289.252 522.04C291.172 522.52 292.692 523.48 293.812 524.92C295.012 526.36 295.772 528.04 296.092 529.96C296.412 531.8 296.132 533.64 295.252 535.48C294.452 537.32 293.012 538.8 290.932 539.92C288.132 541.6 284.652 542.92 280.492 543.88C276.412 544.84 272.332 545.32 268.252 545.32ZM337.937 545.08C334.417 545.08 331.697 544.12 329.777 542.2C327.857 540.2 326.897 537.44 326.897 533.92V477.4H308.057C305.097 477.4 302.817 476.64 301.217 475.12C299.697 473.52 298.937 471.28 298.937 468.4C298.937 465.44 299.697 463.2 301.217 461.68C302.817 460.16 305.097 459.4 308.057 459.4H367.817C370.777 459.4 373.017 460.16 374.537 461.68C376.137 463.2 376.937 465.44 376.937 468.4C376.937 471.28 376.137 473.52 374.537 475.12C373.017 476.64 370.777 477.4 367.817 477.4H348.977V533.92C348.977 537.44 348.057 540.2 346.217 542.2C344.377 544.12 341.617 545.08 337.937 545.08ZM395.243 545.08C391.723 545.08 389.003 544.12 387.083 542.2C385.163 540.2 384.203 537.44 384.203 533.92V470.56C384.203 466.96 385.163 464.2 387.083 462.28C389.083 460.36 391.843 459.4 395.363 459.4H424.883C434.483 459.4 441.883 461.76 447.083 466.48C452.363 471.12 455.003 477.6 455.003 485.92C455.003 491.28 453.803 495.96 451.403 499.96C449.083 503.88 445.683 506.92 441.203 509.08C436.803 511.16 431.363 512.2 424.883 512.2L425.843 510.04H431.603C435.043 510.04 438.083 510.88 440.723 512.56C443.363 514.16 445.563 516.64 447.323 520L453.323 530.8C454.603 533.12 455.203 535.4 455.123 537.64C455.043 539.8 454.163 541.6 452.483 543.04C450.883 544.4 448.523 545.08 445.403 545.08C442.283 545.08 439.723 544.44 437.723 543.16C435.803 541.88 434.083 539.88 432.563 537.16L421.643 517.12C420.683 515.36 419.443 514.16 417.923 513.52C416.483 512.8 414.803 512.44 412.883 512.44H406.283V533.92C406.283 537.44 405.363 540.2 403.523 542.2C401.683 544.12 398.923 545.08 395.243 545.08ZM406.283 496.84H420.923C425.163 496.84 428.403 496 430.643 494.32C432.883 492.64 434.003 490.04 434.003 486.52C434.003 483.16 432.883 480.64 430.643 478.96C428.403 477.2 425.163 476.32 420.923 476.32H406.283V496.84ZM479.97 545.08C476.45 545.08 473.73 544.12 471.81 542.2C469.89 540.2 468.93 537.4 468.93 533.8V469.6C468.93 465.92 469.89 463.12 471.81 461.2C473.73 459.28 476.45 458.32 479.97 458.32C483.57 458.32 486.29 459.28 488.13 461.2C490.05 463.12 491.01 465.92 491.01 469.6V533.8C491.01 537.4 490.09 540.2 488.25 542.2C486.41 544.12 483.65 545.08 479.97 545.08ZM549.033 545.32C539.673 545.32 531.633 543.52 524.913 539.92C518.193 536.32 513.033 531.24 509.433 524.68C505.913 518.12 504.153 510.44 504.153 501.64C504.153 495.08 505.153 489.12 507.153 483.76C509.233 478.4 512.193 473.8 516.033 469.96C519.953 466.12 524.673 463.2 530.193 461.2C535.793 459.12 542.073 458.08 549.033 458.08C552.713 458.08 556.513 458.52 560.433 459.4C564.433 460.2 567.953 461.44 570.993 463.12C573.233 464.32 574.793 465.84 575.673 467.68C576.553 469.52 576.833 471.4 576.513 473.32C576.273 475.24 575.593 476.96 574.473 478.48C573.353 480 571.913 481.04 570.153 481.6C568.393 482.08 566.473 481.8 564.393 480.76C561.993 479.64 559.593 478.8 557.193 478.24C554.873 477.6 552.433 477.28 549.873 477.28C544.913 477.28 540.753 478.24 537.393 480.16C534.113 482 531.633 484.72 529.953 488.32C528.273 491.92 527.433 496.36 527.433 501.64C527.433 506.92 528.273 511.4 529.953 515.08C531.633 518.68 534.113 521.44 537.393 523.36C540.753 525.2 544.913 526.12 549.873 526.12C551.953 526.12 554.193 525.88 556.593 525.4C558.993 524.84 561.353 524 563.673 522.88C566.073 521.84 568.193 521.56 570.033 522.04C571.953 522.52 573.473 523.48 574.593 524.92C575.793 526.36 576.553 528.04 576.873 529.96C577.193 531.8 576.913 533.64 576.033 535.48C575.233 537.32 573.793 538.8 571.713 539.92C568.913 541.6 565.433 542.92 561.273 543.88C557.193 544.84 553.113 545.32 549.033 545.32ZM591.484 545.08C589.004 545.08 586.924 544.52 585.244 543.4C583.564 542.2 582.524 540.6 582.124 538.6C581.724 536.52 582.084 534.2 583.204 531.64L613.084 467.32C614.524 464.2 616.284 461.92 618.364 460.48C620.524 459.04 622.964 458.32 625.684 458.32C628.404 458.32 630.764 459.04 632.764 460.48C634.844 461.92 636.644 464.2 638.164 467.32L668.044 531.64C669.324 534.2 669.764 536.52 669.364 538.6C669.044 540.68 668.044 542.28 666.364 543.4C664.764 544.52 662.764 545.08 660.364 545.08C657.164 545.08 654.684 544.36 652.924 542.92C651.244 541.48 649.724 539.16 648.364 535.96L641.884 520.72L650.284 526.84H600.844L609.364 520.72L602.884 535.96C601.444 539.16 599.964 541.48 598.444 542.92C596.924 544.36 594.604 545.08 591.484 545.08ZM625.444 482.44L611.524 515.68L608.164 509.92H643.084L639.724 515.68L625.684 482.44H625.444ZM690.207 544C686.687 544 683.927 543.04 681.927 541.12C680.007 539.12 679.047 536.36 679.047 532.84V470.44C679.047 466.84 680.007 464.08 681.927 462.16C683.847 460.24 686.567 459.28 690.087 459.28C693.687 459.28 696.407 460.24 698.247 462.16C700.167 464.08 701.127 466.84 701.127 470.44V525.64H730.407C733.447 525.64 735.767 526.44 737.367 528.04C739.047 529.56 739.887 531.8 739.887 534.76C739.887 537.72 739.047 540 737.367 541.6C735.767 543.2 733.447 544 730.407 544H690.207ZM779.276 545.32C776.076 545.32 772.716 545.08 769.196 544.6C765.756 544.2 762.476 543.56 759.356 542.68C756.236 541.8 753.436 540.76 750.956 539.56C748.796 538.52 747.276 537.16 746.396 535.48C745.516 533.72 745.196 531.88 745.436 529.96C745.676 528.04 746.356 526.36 747.476 524.92C748.596 523.4 750.076 522.4 751.916 521.92C753.756 521.36 755.836 521.6 758.156 522.64C761.196 524.08 764.636 525.2 768.476 526C772.316 526.8 775.916 527.2 779.276 527.2C784.556 527.2 788.236 526.52 790.316 525.16C792.476 523.72 793.556 521.96 793.556 519.88C793.556 518.04 792.796 516.56 791.276 515.44C789.836 514.32 787.236 513.36 783.476 512.56L769.436 509.56C761.756 507.96 756.036 505.16 752.276 501.16C748.516 497.16 746.636 492 746.636 485.68C746.636 481.52 747.476 477.76 749.156 474.4C750.916 470.96 753.356 468.04 756.476 465.64C759.676 463.24 763.436 461.4 767.756 460.12C772.156 458.76 777.036 458.08 782.396 458.08C786.556 458.08 790.756 458.56 794.996 459.52C799.316 460.4 803.036 461.76 806.156 463.6C807.996 464.56 809.316 465.88 810.116 467.56C810.916 469.24 811.236 471 811.076 472.84C810.916 474.6 810.276 476.16 809.156 477.52C808.116 478.88 806.676 479.8 804.836 480.28C803.076 480.68 800.956 480.36 798.476 479.32C796.156 478.28 793.516 477.52 790.556 477.04C787.676 476.48 784.876 476.2 782.156 476.2C779.196 476.2 776.676 476.56 774.596 477.28C772.516 477.92 770.916 478.88 769.796 480.16C768.756 481.44 768.236 482.92 768.236 484.6C768.236 486.28 768.916 487.72 770.276 488.92C771.716 490.04 774.316 491 778.076 491.8L791.996 494.8C799.756 496.48 805.556 499.24 809.396 503.08C813.236 506.92 815.156 511.92 815.156 518.08C815.156 522.24 814.316 526 812.636 529.36C810.956 532.72 808.556 535.6 805.436 538C802.316 540.32 798.556 542.12 794.156 543.4C789.756 544.68 784.796 545.32 779.276 545.32Z" fill="#FE003D"/>
</svg>
