<svg width="250" height="250" viewBox="0 0 861 731" fill="none" xmlns="http://www.w3.org/2000/svg">
<path fill-rule="evenodd" clip-rule="evenodd" d="M427.824 151.115C404.1 136.981 373.047 144.538 358.757 168.167L241.704 361.72L105.21 168.239C102.527 164.435 99.4002 161.119 95.9478 158.311C87.1361 150.872 75.7425 146.382 63.3755 146.382C35.7612 146.382 13 168.768 13 196.382V509.382C13 536.997 35.7612 559.382 63.3755 559.382C90.9897 559.382 113.751 536.997 113.751 509.382V354.69L200.955 478.301C207.194 487.145 215.826 493.348 225.381 496.673C248.31 507.098 276.17 499.034 289.482 477.022L352.531 372.768V509.382C352.531 536.997 375.292 559.382 402.906 559.382C430.52 559.382 453.282 536.997 453.282 509.382V196.382C453.282 189.069 451.685 182.122 448.825 175.861C444.91 165.861 437.755 157.032 427.824 151.115Z" fill="#000A40"/>
<path d="M491.567 146.383H592.318V509.007C592.318 536.829 569.764 559.383 541.942 559.383V559.383C514.121 559.383 491.567 536.829 491.567 509.007V146.383Z" fill="#000A40"/>
<path d="M491.567 146.383H667.5C750.619 146.383 818 213.764 818 296.883V296.883C818 380.001 750.619 447.383 667.5 447.383H491.567V146.383Z" fill="#000A40"/>
<path d="M633.523 207.383C632.044 207.384 630.593 207.779 629.325 208.525C628.057 209.272 627.02 210.343 626.325 211.622L561.04 331.628C560.376 332.847 560.045 334.213 560.08 335.594C560.115 336.976 560.515 338.325 561.239 339.51C561.964 340.695 562.99 341.675 564.216 342.356C565.442 343.037 566.828 343.395 568.237 343.396H607.694L592.817 438.177C592.548 439.908 592.866 441.678 593.721 443.215C594.577 444.752 595.923 445.971 597.553 446.686C599.184 447.4 601.009 447.571 602.747 447.171C604.486 446.772 606.043 445.824 607.18 444.473L721.438 308.46C722.419 307.29 723.041 305.871 723.232 304.367C723.422 302.864 723.174 301.339 722.515 299.968C721.856 298.598 720.813 297.44 719.509 296.627C718.204 295.815 716.691 295.383 715.146 295.381H663.595L705.973 219.214C706.651 217.996 706.994 216.627 706.969 215.24C706.944 213.852 706.551 212.496 705.829 211.302C705.107 210.109 704.081 209.12 702.852 208.433C701.622 207.746 700.232 207.384 698.816 207.383H633.523Z" fill="#FFE141"/>
<path d="M45.2 101.9C42.2667 101.9 40 101.1 38.4 99.5C36.8 97.8333 36 95.5333 36 92.6V45.5H20.3C17.8333 45.5 15.9333 44.8667 14.6 43.6C13.3333 42.2667 12.7 40.4 12.7 38C12.7 35.5333 13.3333 33.6667 14.6 32.4C15.9333 31.1333 17.8333 30.5 20.3 30.5H70.1C72.5667 30.5 74.4333 31.1333 75.7 32.4C77.0333 33.6667 77.7 35.5333 77.7 38C77.7 40.4 77.0333 42.2667 75.7 43.6C74.4333 44.8667 72.5667 45.5 70.1 45.5H54.4V92.6C54.4 95.5333 53.6333 97.8333 52.1 99.5C50.5667 101.1 48.2667 101.9 45.2 101.9ZM92.9555 101.9C90.0221 101.9 87.7555 101.1 86.1555 99.5C84.5555 97.8333 83.7555 95.5 83.7555 92.5V39C83.7555 35.9333 84.5555 33.6 86.1555 32C87.7555 30.4 90.0221 29.6 92.9555 29.6C95.9555 29.6 98.2221 30.4 99.7555 32C101.355 33.6 102.155 35.9333 102.155 39V57.7H131.255V39C131.255 35.9333 132.022 33.6 133.555 32C135.155 30.4 137.455 29.6 140.455 29.6C143.389 29.6 145.622 30.4 147.155 32C148.755 33.6 149.555 35.9333 149.555 39V92.5C149.555 95.5 148.755 97.8333 147.155 99.5C145.622 101.1 143.389 101.9 140.455 101.9C137.455 101.9 135.155 101.1 133.555 99.5C132.022 97.8333 131.255 95.5 131.255 92.5V72.8H102.155V92.5C102.155 95.5 101.389 97.8333 99.8555 99.5C98.3221 101.1 96.0221 101.9 92.9555 101.9ZM171.969 101C168.835 101 166.435 100.2 164.769 98.6C163.169 96.9333 162.369 94.5667 162.369 91.5V40C162.369 36.9333 163.169 34.6 164.769 33C166.435 31.3333 168.835 30.5 171.969 30.5H205.869C208.269 30.5 210.069 31.1 211.269 32.3C212.469 33.5 213.069 35.2333 213.069 37.5C213.069 39.8333 212.469 41.6333 211.269 42.9C210.069 44.1 208.269 44.7 205.869 44.7H179.969V58.1H203.669C206.002 58.1 207.769 58.7 208.969 59.9C210.235 61.1 210.869 62.8667 210.869 65.2C210.869 67.5333 210.235 69.3 208.969 70.5C207.769 71.7 206.002 72.3 203.669 72.3H179.969V86.8H205.869C208.269 86.8 210.069 87.4333 211.269 88.7C212.469 89.9 213.069 91.6333 213.069 93.9C213.069 96.2333 212.469 98 211.269 99.2C210.069 100.4 208.269 101 205.869 101H171.969Z" fill="#FE0089"/>
<path d="M19.2 688C15.44 688 12.56 687.04 10.56 685.12C8.64 683.12 7.68 680.28 7.68 676.6V614.8C7.68 611.12 8.64 608.32 10.56 606.4C12.56 604.4 15.44 603.4 19.2 603.4H59.88C62.76 603.4 64.92 604.12 66.36 605.56C67.8 607 68.52 609.08 68.52 611.8C68.52 614.6 67.8 616.76 66.36 618.28C64.92 619.72 62.76 620.44 59.88 620.44H28.8V636.52H57.24C60.04 636.52 62.16 637.24 63.6 638.68C65.12 640.12 65.88 642.24 65.88 645.04C65.88 647.84 65.12 649.96 63.6 651.4C62.16 652.84 60.04 653.56 57.24 653.56H28.8V670.96H59.88C62.76 670.96 64.92 671.72 66.36 673.24C67.8 674.68 68.52 676.76 68.52 679.48C68.52 682.28 67.8 684.4 66.36 685.84C64.92 687.28 62.76 688 59.88 688H19.2ZM92.5509 688C89.0309 688 86.2709 687.04 84.2709 685.12C82.3509 683.12 81.3909 680.36 81.3909 676.84V614.44C81.3909 610.84 82.3509 608.08 84.2709 606.16C86.1909 604.24 88.9109 603.28 92.4309 603.28C96.0309 603.28 98.7509 604.24 100.591 606.16C102.511 608.08 103.471 610.84 103.471 614.44V669.64H132.751C135.791 669.64 138.111 670.44 139.711 672.04C141.391 673.56 142.231 675.8 142.231 678.76C142.231 681.72 141.391 684 139.711 685.6C138.111 687.2 135.791 688 132.751 688H92.5509ZM163.106 688C159.346 688 156.466 687.04 154.466 685.12C152.546 683.12 151.586 680.28 151.586 676.6V614.8C151.586 611.12 152.546 608.32 154.466 606.4C156.466 604.4 159.346 603.4 163.106 603.4H203.786C206.666 603.4 208.826 604.12 210.266 605.56C211.706 607 212.426 609.08 212.426 611.8C212.426 614.6 211.706 616.76 210.266 618.28C208.826 619.72 206.666 620.44 203.786 620.44H172.706V636.52H201.146C203.946 636.52 206.066 637.24 207.506 638.68C209.026 640.12 209.786 642.24 209.786 645.04C209.786 647.84 209.026 649.96 207.506 651.4C206.066 652.84 203.946 653.56 201.146 653.56H172.706V670.96H203.786C206.666 670.96 208.826 671.72 210.266 673.24C211.706 674.68 212.426 676.76 212.426 679.48C212.426 682.28 211.706 684.4 210.266 685.84C208.826 687.28 206.666 688 203.786 688H163.106ZM268.252 689.32C258.892 689.32 250.852 687.52 244.132 683.92C237.412 680.32 232.252 675.24 228.652 668.68C225.132 662.12 223.372 654.44 223.372 645.64C223.372 639.08 224.372 633.12 226.372 627.76C228.452 622.4 231.412 617.8 235.252 613.96C239.172 610.12 243.892 607.2 249.412 605.2C255.012 603.12 261.292 602.08 268.252 602.08C271.932 602.08 275.732 602.52 279.652 603.4C283.652 604.2 287.172 605.44 290.212 607.12C292.452 608.32 294.012 609.84 294.892 611.68C295.772 613.52 296.052 615.4 295.732 617.32C295.492 619.24 294.812 620.96 293.692 622.48C292.572 624 291.132 625.04 289.372 625.6C287.612 626.08 285.692 625.8 283.612 624.76C281.212 623.64 278.812 622.8 276.412 622.24C274.092 621.6 271.652 621.28 269.092 621.28C264.132 621.28 259.972 622.24 256.612 624.16C253.332 626 250.852 628.72 249.172 632.32C247.492 635.92 246.652 640.36 246.652 645.64C246.652 650.92 247.492 655.4 249.172 659.08C250.852 662.68 253.332 665.44 256.612 667.36C259.972 669.2 264.132 670.12 269.092 670.12C271.172 670.12 273.412 669.88 275.812 669.4C278.212 668.84 280.572 668 282.892 666.88C285.292 665.84 287.412 665.56 289.252 666.04C291.172 666.52 292.692 667.48 293.812 668.92C295.012 670.36 295.772 672.04 296.092 673.96C296.412 675.8 296.132 677.64 295.252 679.48C294.452 681.32 293.012 682.8 290.932 683.92C288.132 685.6 284.652 686.92 280.492 687.88C276.412 688.84 272.332 689.32 268.252 689.32ZM337.937 689.08C334.417 689.08 331.697 688.12 329.777 686.2C327.857 684.2 326.897 681.44 326.897 677.92V621.4H308.057C305.097 621.4 302.817 620.64 301.217 619.12C299.697 617.52 298.937 615.28 298.937 612.4C298.937 609.44 299.697 607.2 301.217 605.68C302.817 604.16 305.097 603.4 308.057 603.4H367.817C370.777 603.4 373.017 604.16 374.537 605.68C376.137 607.2 376.937 609.44 376.937 612.4C376.937 615.28 376.137 617.52 374.537 619.12C373.017 620.64 370.777 621.4 367.817 621.4H348.977V677.92C348.977 681.44 348.057 684.2 346.217 686.2C344.377 688.12 341.617 689.08 337.937 689.08ZM395.243 689.08C391.723 689.08 389.003 688.12 387.083 686.2C385.163 684.2 384.203 681.44 384.203 677.92V614.56C384.203 610.96 385.163 608.2 387.083 606.28C389.083 604.36 391.843 603.4 395.363 603.4H424.883C434.483 603.4 441.883 605.76 447.083 610.48C452.363 615.12 455.003 621.6 455.003 629.92C455.003 635.28 453.803 639.96 451.403 643.96C449.083 647.88 445.683 650.92 441.203 653.08C436.803 655.16 431.363 656.2 424.883 656.2L425.843 654.04H431.603C435.043 654.04 438.083 654.88 440.723 656.56C443.363 658.16 445.563 660.64 447.323 664L453.323 674.8C454.603 677.12 455.203 679.4 455.123 681.64C455.043 683.8 454.163 685.6 452.483 687.04C450.883 688.4 448.523 689.08 445.403 689.08C442.283 689.08 439.723 688.44 437.723 687.16C435.803 685.88 434.083 683.88 432.563 681.16L421.643 661.12C420.683 659.36 419.443 658.16 417.923 657.52C416.483 656.8 414.803 656.44 412.883 656.44H406.283V677.92C406.283 681.44 405.363 684.2 403.523 686.2C401.683 688.12 398.923 689.08 395.243 689.08ZM406.283 640.84H420.923C425.163 640.84 428.403 640 430.643 638.32C432.883 636.64 434.003 634.04 434.003 630.52C434.003 627.16 432.883 624.64 430.643 622.96C428.403 621.2 425.163 620.32 420.923 620.32H406.283V640.84ZM479.97 689.08C476.45 689.08 473.73 688.12 471.81 686.2C469.89 684.2 468.93 681.4 468.93 677.8V613.6C468.93 609.92 469.89 607.12 471.81 605.2C473.73 603.28 476.45 602.32 479.97 602.32C483.57 602.32 486.29 603.28 488.13 605.2C490.05 607.12 491.01 609.92 491.01 613.6V677.8C491.01 681.4 490.09 684.2 488.25 686.2C486.41 688.12 483.65 689.08 479.97 689.08ZM549.033 689.32C539.673 689.32 531.633 687.52 524.913 683.92C518.193 680.32 513.033 675.24 509.433 668.68C505.913 662.12 504.153 654.44 504.153 645.64C504.153 639.08 505.153 633.12 507.153 627.76C509.233 622.4 512.193 617.8 516.033 613.96C519.953 610.12 524.673 607.2 530.193 605.2C535.793 603.12 542.073 602.08 549.033 602.08C552.713 602.08 556.513 602.52 560.433 603.4C564.433 604.2 567.953 605.44 570.993 607.12C573.233 608.32 574.793 609.84 575.673 611.68C576.553 613.52 576.833 615.4 576.513 617.32C576.273 619.24 575.593 620.96 574.473 622.48C573.353 624 571.913 625.04 570.153 625.6C568.393 626.08 566.473 625.8 564.393 624.76C561.993 623.64 559.593 622.8 557.193 622.24C554.873 621.6 552.433 621.28 549.873 621.28C544.913 621.28 540.753 622.24 537.393 624.16C534.113 626 531.633 628.72 529.953 632.32C528.273 635.92 527.433 640.36 527.433 645.64C527.433 650.92 528.273 655.4 529.953 659.08C531.633 662.68 534.113 665.44 537.393 667.36C540.753 669.2 544.913 670.12 549.873 670.12C551.953 670.12 554.193 669.88 556.593 669.4C558.993 668.84 561.353 668 563.673 666.88C566.073 665.84 568.193 665.56 570.033 666.04C571.953 666.52 573.473 667.48 574.593 668.92C575.793 670.36 576.553 672.04 576.873 673.96C577.193 675.8 576.913 677.64 576.033 679.48C575.233 681.32 573.793 682.8 571.713 683.92C568.913 685.6 565.433 686.92 561.273 687.88C557.193 688.84 553.113 689.32 549.033 689.32ZM591.484 689.08C589.004 689.08 586.924 688.52 585.244 687.4C583.564 686.2 582.524 684.6 582.124 682.6C581.724 680.52 582.084 678.2 583.204 675.64L613.084 611.32C614.524 608.2 616.284 605.92 618.364 604.48C620.524 603.04 622.964 602.32 625.684 602.32C628.404 602.32 630.764 603.04 632.764 604.48C634.844 605.92 636.644 608.2 638.164 611.32L668.044 675.64C669.324 678.2 669.764 680.52 669.364 682.6C669.044 684.68 668.044 686.28 666.364 687.4C664.764 688.52 662.764 689.08 660.364 689.08C657.164 689.08 654.684 688.36 652.924 686.92C651.244 685.48 649.724 683.16 648.364 679.96L641.884 664.72L650.284 670.84H600.844L609.364 664.72L602.884 679.96C601.444 683.16 599.964 685.48 598.444 686.92C596.924 688.36 594.604 689.08 591.484 689.08ZM625.444 626.44L611.524 659.68L608.164 653.92H643.084L639.724 659.68L625.684 626.44H625.444ZM690.207 688C686.687 688 683.927 687.04 681.927 685.12C680.007 683.12 679.047 680.36 679.047 676.84V614.44C679.047 610.84 680.007 608.08 681.927 606.16C683.847 604.24 686.567 603.28 690.087 603.28C693.687 603.28 696.407 604.24 698.247 606.16C700.167 608.08 701.127 610.84 701.127 614.44V669.64H730.407C733.447 669.64 735.767 670.44 737.367 672.04C739.047 673.56 739.887 675.8 739.887 678.76C739.887 681.72 739.047 684 737.367 685.6C735.767 687.2 733.447 688 730.407 688H690.207ZM779.276 689.32C776.076 689.32 772.716 689.08 769.196 688.6C765.756 688.2 762.476 687.56 759.356 686.68C756.236 685.8 753.436 684.76 750.956 683.56C748.796 682.52 747.276 681.16 746.396 679.48C745.516 677.72 745.196 675.88 745.436 673.96C745.676 672.04 746.356 670.36 747.476 668.92C748.596 667.4 750.076 666.4 751.916 665.92C753.756 665.36 755.836 665.6 758.156 666.64C761.196 668.08 764.636 669.2 768.476 670C772.316 670.8 775.916 671.2 779.276 671.2C784.556 671.2 788.236 670.52 790.316 669.16C792.476 667.72 793.556 665.96 793.556 663.88C793.556 662.04 792.796 660.56 791.276 659.44C789.836 658.32 787.236 657.36 783.476 656.56L769.436 653.56C761.756 651.96 756.036 649.16 752.276 645.16C748.516 641.16 746.636 636 746.636 629.68C746.636 625.52 747.476 621.76 749.156 618.4C750.916 614.96 753.356 612.04 756.476 609.64C759.676 607.24 763.436 605.4 767.756 604.12C772.156 602.76 777.036 602.08 782.396 602.08C786.556 602.08 790.756 602.56 794.996 603.52C799.316 604.4 803.036 605.76 806.156 607.6C807.996 608.56 809.316 609.88 810.116 611.56C810.916 613.24 811.236 615 811.076 616.84C810.916 618.6 810.276 620.16 809.156 621.52C808.116 622.88 806.676 623.8 804.836 624.28C803.076 624.68 800.956 624.36 798.476 623.32C796.156 622.28 793.516 621.52 790.556 621.04C787.676 620.48 784.876 620.2 782.156 620.2C779.196 620.2 776.676 620.56 774.596 621.28C772.516 621.92 770.916 622.88 769.796 624.16C768.756 625.44 768.236 626.92 768.236 628.6C768.236 630.28 768.916 631.72 770.276 632.92C771.716 634.04 774.316 635 778.076 635.8L791.996 638.8C799.756 640.48 805.556 643.24 809.396 647.08C813.236 650.92 815.156 655.92 815.156 662.08C815.156 666.24 814.316 670 812.636 673.36C810.956 676.72 808.556 679.6 805.436 682C802.316 684.32 798.556 686.12 794.156 687.4C789.756 688.68 784.796 689.32 779.276 689.32Z" fill="#FE0089"/>
</svg>
